<?xml version="1.0" encoding="UTF-8"?><svg id="Layer_2" xmlns="http://www.w3.org/2000/svg" viewBox="0 0 364.27 346.88"><g id="Layer_1-2"><g><path d="M364.27,78.78c-1.67,7.72-3.44,15.41-5,23.15-7.2,35.74-14.26,71.52-21.54,107.25-4.79,23.5-22.36,37.61-46.55,37.62-55.37,.03-110.73,.04-166.1,0-25.14-.02-43.36-16.5-46.83-41.51-4.67-33.67-9.76-67.28-14.67-100.91-3.18-21.8-6.37-43.6-9.5-65.4-.79-5.48-1.66-6.34-7.27-6.36-10.43-.02-20.87,.11-31.3-.11-7.55-.16-13.62-5.63-15.19-13.13C-1.15,12.37,2.57,4.76,9.27,1.73,11.48,.72,14.04,.03,16.45,.03c12.44-.02,24.9-.17,37.31,.49,14.29,.77,27.63,12.41,30.96,26.34,1.23,5.17,1.94,10.46,2.81,15.72,.86,5.25,1.61,10.52,2.5,16.34h4.47c82.64,0,165.27,.1,247.91-.13,10.32-.03,18.06,2.64,21.86,12.87v7.11Z"/><path d="M275.97,262.21c23.43,.09,42.18,18.9,42.17,42.31-.01,23.32-18.99,42.35-42.23,42.36-23.38,0-42.57-19.26-42.45-42.6,.12-23.3,19.17-42.15,42.51-42.06Z"/><path d="M130.54,262.26c23.2,.2,41.82,19.43,41.58,42.94-.23,22.58-19.61,42.03-41.52,41.68-23.2-.37-41.87-19.7-41.6-43.08,.25-22.64,19.35-41.74,41.54-41.54Z"/></g></g></svg>