<?xml version="1.0" encoding="utf-8"?>
<!-- Generator: Adobe Illustrator 26.5.1, SVG Export Plug-In . SVG Version: 6.00 Build 0)  -->
<svg version="1.1" id="Layer_1" xmlns="http://www.w3.org/2000/svg" xmlns:xlink="http://www.w3.org/1999/xlink" x="0px" y="0px"
	 viewBox="0 0 383.3 383.6" style="enable-background:new 0 0 383.3 383.6;" xml:space="preserve">
<g id="Layer_2_00000052823204377572567250000013745178509847282071_">
	<g id="Layer_1-2">
		<path d="M0,277.4c1.1-5.5,1.9-11,3.3-16.4c7.3-26.2,22.9-46.1,46.4-59.8c0.6-0.4,1.3-0.7,2.2-1.3c-0.5-0.5-1.1-0.9-1.7-1.3
			c-22.6-11.4-31.4-30.6-30.4-55c0.4-7.1,1.4-14.1,2.9-21c1-4.8,2.8-9.5,4.3-14.4c20.4,0.3,39.5,3.9,56,16.1
			c14.5,10.7,20.2,25.8,20.7,43.2c0.2,6.9-0.7,13.9-1.1,21.1c4.1,0.6,8.4,1,12.6,1.8c48.1,9,82.1,52.2,79.4,101.1
			c-2.8,47.8-38.8,85.9-86.7,91.5c-0.9,0.2-1.7,0.4-2.5,0.6H89.1c-0.8-0.2-1.6-0.5-2.5-0.6c-40.2-5.9-67.4-27.9-81.4-66
			c-2.6-7.2-3.5-15-5.2-22.5C0,294.5,0,277.4,0,277.4z M129.4,235.9c0-6.1-5.1-11.5-11-11.5s-11.3,5.2-11.3,10.8
			c0,6.2,5.1,11.4,11,11.5S129.4,241.6,129.4,235.9z M89,269.5c-0.2,6.2,4.7,11.3,10.8,11.6c5.9,0.1,11.3-5,11.4-10.6
			c0-6.2-4.9-11.5-10.9-11.6S89.1,263.9,89,269.5z M70.2,235.3c-0.1,6.2,4.8,11.3,11,11.4c6,0,11.2-5.1,11.1-10.8
			c-0.1-6.3-5-11.4-11-11.4S70.2,229.5,70.2,235.3L70.2,235.3z"/>
		<path d="M166.9,383.6c0.8-0.9,1.6-1.8,2.5-2.5c13-9.8,23.8-22.2,31.7-36.4c1.1-2.2,3.1-3.8,5.5-4.3
			C276,323.6,328,268.8,339.8,198.7c9.5-56-4.9-105.7-42-148.8c-0.8-0.9-1.6-1.9-2.4-2.8c-0.2-0.2-0.2-0.4-0.1-0.1l31.4-31.3
			c6.6,8.8,13.9,17.5,20.1,26.9c29,44,40.8,92.5,35,144.9c-10.1,90.5-72,163.2-159.6,188.1c-13.9,4-28.2,6.4-42.7,7.4
			c-1.2,0.1-2.4,0.4-3.6,0.6H166.9z"/>
		<path d="M213.6,315.8c10.5-56.8-7.9-100.6-54.4-132.2L279.8,62.9c34.2,39.1,48.1,85,37.2,136.7
			C304.8,257.2,268.8,295.1,213.6,315.8z M206.6,190.3c0-6.1-5-11.5-11-11.6s-11.3,5.2-11.3,10.8c0,6.2,5,11.4,11,11.5
			S206.5,196,206.6,190.3L206.6,190.3z M249.3,198.3c0.1-6.2-4.7-11.3-10.9-11.6c-6-0.1-11.4,4.9-11.4,10.6
			c0,6.2,4.7,11.3,10.9,11.6C243.6,209.1,249.2,203.9,249.3,198.3L249.3,198.3z M219.2,154.8c-0.1,6.2,4.8,11.2,10.9,11.4
			c5.9,0,11.2-5.1,11.1-10.8c0.1-6.2-4.8-11.2-10.9-11.4C224.3,144,219.1,149,219.2,154.8L219.2,154.8z"/>
		<path d="M169.6,42.6c7.4,0.9,14.9,1.2,22.1,2.8c17.7,4.1,33.5,12.4,47.8,24.4c-1.1,1.1-2,2.1-2.9,3
			c-32.5,32.5-64.9,64.9-97.3,97.4c-2.4,2.4-4.3,3.1-7.4,1.7c-2-0.8-4-1.4-6.1-1.8c-0.5-38.2-19.1-63.5-54.6-76.6
			c7.9-20.9,51.4-49.3,76.6-49.8v36h22.4v-7.4c0-8.6,0-17.2,0-25.8C170.1,45.2,169.9,43.8,169.6,42.6L169.6,42.6z"/>
		<path d="M169.7,42.5H148c0-2.1,0.1-4.5,0-7c-0.2-7.9-5.2-12.8-13-12.9c-8.2-0.1-16.4,0-24.8,0V0c11.2,0.4,22.3-0.2,33.2,1.5
			c14.6,2.2,25.8,16,26.6,30.8C170.2,35.7,169.8,39.2,169.7,42.5L169.7,42.5z"/>
	</g>
</g>
</svg>
